# xmcd
#
# Track frame offsets: 
#        150
#        16252
#        32467
#        47871
#        62581
#        84026
#        102411
#        119279
#        121777
#        141017
#        157279
#        172827
#        189256
#        201994
#        219755
#        234623
#        251646
#        268322
#        282739
#        310499
#
# Disc length: 4347 seconds
#
# Revision: 0
# Processed by: cddbd v1.5.2PL0 Copyright (c) Steve Scherf et al.
# Submitted via: ExactAudioCopy v0.99pb5
#
DISCID=1b10f914
DTITLE=Carmen Consoli - Per niente stanca CD1
DYEAR=2010
DGENRE=Blues
TTITLE0=Guarda l'alba
TTITLE1=Fiori d'arancio
TTITLE2=L'ultimo bacio
TTITLE3=Mio zio
TTITLE4=Eco di sirene
TTITLE5=Blunotte
TTITLE6=Besame Giuda
TTITLE7=Besame mucho
TTITLE8=Maria Catena
TTITLE9=In bianco e nero
TTITLE10=Tutto l'universo obbedisce all'amore
TTITLE11=Mandaci una cartolina
TTITLE12=Questa notte una lucciola illumina la mia finestra
TTITLE13=Un sorriso in più
TTITLE14=Il pendio dell'abbandono
TTITLE15=Non molto lontano da qui
TTITLE16=Puramente casuale
TTITLE17=L'eccezione
TTITLE18=Tutto su Eva
TTITLE19=Can't get you out of my head
EXTD=
EXTT0=
EXTT1=
EXTT2=
EXTT3=
EXTT4=
EXTT5=
EXTT6=
EXTT7=
EXTT8=
EXTT9=
EXTT10=
EXTT11=
EXTT12=
EXTT13=
EXTT14=
EXTT15=
EXTT16=
EXTT17=
EXTT18=
EXTT19=
PLAYORDER=
